<svg xmlns="http://www.w3.org/2000/svg" viewBox="0 0 1024 1024" data-v-d2e47025="">


    <path
        d="M832 384H576V128H192v768h640zm-26.496-64L640 154.496V320zM160 64h480l256 256v608a32 32 0 0 1-32 32H160a32 32 0 0 1-32-32V96a32 32 0 0 1 32-32"></path>
    <path
        d="M480 736v-256a32 32 0 0 1 64 0v256a32 32 0 0 1 -64 0zm32 32"></path>
    <path
        transform="rotate(135, 512 ,736)"
        d="M480 736a32 32 0 0 1 64 0v150a32 32 0 0 1 -64 0z"></path>
    <path
        transform="rotate(225, 512 ,736)"
        d="M480 736a32 32 0 0 1 64 0v150a32 32 0 0 1 -64 0z"></path>
</svg>